<?xml version="1.0" encoding="utf-8"?>
<!-- Generator: Adobe Illustrator 21.1.0, SVG Export Plug-In . SVG Version: 6.00 Build 0)  -->
<svg version="1.1" id="Layer_1" xmlns="http://www.w3.org/2000/svg" xmlns:xlink="http://www.w3.org/1999/xlink" x="0px" y="0px"
	 viewBox="0 0 595.3 841.9" style="enable-background:new 0 0 595.3 841.9;" xml:space="preserve">
<g>
	<path d="M53.9,46.6c7.8,2.6,15.5,5.3,23.3,7.7C160.6,80.2,244,106.1,327.4,132c0.7,0.2,1.4,0.5,2.6,1
		c-92.1,161-184.1,321.7-276.1,482.5c-0.3-0.1-0.5-0.1-0.8-0.2c0-1.2,0-2.4,0-3.6c-0.1-81.1-0.2-162.1-0.2-243.2c0-11,0-22-0.1-33
		c0-1.4-0.3-2.8-0.4-4.2c0-93.9,0-187.7,0.1-281.6C52.4,48.8,50.9,46.4,53.9,46.6z"/>
	<path d="M88,626.9c3.2-1.7,6.3-3.4,9.5-5c100.1-49.2,200.3-98.5,300.5-147.7c1-0.5,2.1-1,3.5-1.6c7.1,8.3,14.2,16.7,21.2,25
		c35.2,41.5,70.3,83,105.5,124.4c0.8,0.9,1.8,1.7,2.8,2.5c0,0.3,0,0.5,0,0.8c-45.3,0.2-90.7,0.4-136,0.5
		c-59.7,0.2-119.4,0.3-179,0.5c-5.9,0-11.8,0.3-17.8,0.5C161.5,626.9,124.8,626.9,88,626.9z"/>
	<path d="M70.9,617.1c83.2-115.8,166.5-231.7,249.8-347.8c62.8,20.6,125.6,41.2,189.3,62.1C363.4,427.1,217.5,522.4,71.6,617.7
		C71.4,617.5,71.2,617.3,70.9,617.1z"/>
</g>
</svg>
